<?xml version="1.0" standalone="no"?>
<!DOCTYPE svg PUBLIC "-//W3C//DTD SVG 20010904//EN"
  "http://www.w3.org/TR/2001/REC-SVG-20010904/DTD/svg10.dtd">
<svg version="1.0" xmlns="http://www.w3.org/2000/svg"
     width="354.000000pt" height="360.000000pt" viewBox="0 0 354.000000 360.000000"
     fill="#0f6cbd"
     preserveAspectRatio="xMidYMid meet">
  <g transform="translate(0.000000,360.000000) scale(0.100000,-0.100000)"
     stroke="none">
    <path d="M2130 3055 c0 -2 23 -26 51 -52 101 -94 198 -270 240 -431 23 -89 23
-91 7 -97 -90 -31 -128 -49 -121 -55 19 -18 428 -199 434 -192 9 9 199 423
199 433 0 4 -34 -6 -76 -22 -41 -16 -76 -29 -78 -29 -1 0 -18 23 -36 51 -109
168 -299 302 -528 370 -37 11 -73 22 -79 24 -7 3 -13 2 -13 0z"/>
    <path d="M1040 3017 c-30 -13 -179 -88 -330 -167 -308 -162 -351 -193 -403
-299 l-32 -66 0 -275 0 -275 33 -67 c50 -101 91 -131 335 -243 116 -54 246
-114 287 -133 41 -19 92 -40 112 -48 58 -20 166 -26 233 -12 l60 13 8 60 c22
169 68 268 170 369 66 66 93 82 322 203 l250 131 0 143 c0 138 -1 147 -29 202
-50 103 -93 135 -406 300 -157 82 -306 158 -333 168 -70 28 -204 26 -277 -4z
m485 -371 c159 -84 290 -157 292 -163 2 -5 -106 -62 -239 -126 l-243 -117 -72
-105 c-40 -58 -73 -108 -73 -111 0 -3 51 -5 113 -4 141 1 134 2 115 -12 -8 -7
-93 -96 -188 -198 -95 -102 -191 -203 -213 -225 l-40 -40 52 98 c28 53 74 139
101 191 28 51 50 96 50 100 0 3 -45 6 -100 6 -73 0 -100 3 -100 13 0 6 11 72
25 146 14 74 25 136 25 138 0 3 -277 138 -413 200 -69 32 -76 38 -63 51 8 8
140 81 293 163 258 137 282 147 333 148 52 1 70 -7 345 -153z"/>
    <path d="M2383 2120 c-60 -9 -84 -20 -429 -200 -286 -149 -328 -181 -380 -285
l-29 -60 0 -285 0 -285 33 -61 c57 -104 84 -123 358 -250 361 -167 375 -173
450 -183 125 -18 163 -7 507 151 347 159 376 179 433 293 l29 60 0 275 0 275
-31 65 c-51 109 -87 136 -404 303 -157 82 -305 158 -330 167 -57 22 -140 30
-207 20z m221 -293 c56 -30 180 -95 276 -146 175 -92 217 -117 209 -125 -9 -8
-477 -229 -514 -243 -23 -9 -75 -15 -125 -16 -68 0 -97 5 -145 25 -108 44
-495 233 -495 241 0 10 -6 6 320 177 325 171 317 169 474 87z"/>
    <path d="M734 1115 c-50 -124 -88 -225 -84 -225 5 0 38 14 75 30 37 17 70 30
74 30 4 0 15 -14 25 -31 29 -50 136 -158 202 -205 87 -62 233 -129 344 -157
52 -13 96 -23 98 -22 2 2 -25 29 -59 61 -76 73 -137 157 -188 260 -36 73 -81
199 -81 228 0 7 32 26 70 41 39 16 67 31 63 35 -8 7 -407 170 -433 177 -11 3
-38 -53 -106 -222z"/>
  </g>
</svg>
